<mxfile host="app.diagrams.net" modified="2023-11-29T16:03:22.410Z" agent="Mozilla/5.0 (Windows NT 10.0; Win64; x64) AppleWebKit/537.36 (KHTML, like Gecko) Chrome/119.0.0.0 Safari/537.36" version="22.1.5" etag="9tLCt5NO4zHT0KXQQByt" type="github">
  <diagram name="Page-1" id="EmKiFh5BCGxzD36F_mmm">
    <mxGraphModel>
      <root>
        <mxCell id="0" />
        <mxCell id="1" parent="0" />
      </root>
    </mxGraphModel>
  </diagram>
</mxfile>
